# xmcd CD database file
#
# Track frame offsets:
#	150
#	17944
#	34667
#	57784
#	79071
#	97057
#	121227
#	141625
#	161729
#	188056
#	212213
#	232085
#
# Disc length: 3275 seconds
#
# Revision: 0
# Processed by: cddbd v1.5.2PL0 Copyright (c) Steve Scherf et al.
# Submitted via: CDex 1.50
#
DISCID=ac0cc90c
DTITLE=Los Brillanticos - Pa' Curubande yo voy
DYEAR=1996
DGENRE=Salsa
TTITLE0=Eres mas que un angel
TTITLE1=Tu primera vez
TTITLE2=Pa' Curubande yo voy
TTITLE3=A mi democracia
TTITLE4=El cha del fidel
TTITLE5=No te lo creo
TTITLE6=Tus ojos
TTITLE7=Amarte en silencio
TTITLE8=Lucia
TTITLE9=Gracias
TTITLE10=Como un bolero
TTITLE11=Te regalo este bolero
EXTD=YEAR: 1996
EXTT0=
EXTT1=
EXTT2=
EXTT3=
EXTT4=
EXTT5=
EXTT6=
EXTT7=
EXTT8=
EXTT9=
EXTT10=
EXTT11=
PLAYORDER=
